<?xml version="1.0" encoding="UTF-8" standalone="no"?>
<!-- Created with Inkscape (http://www.inkscape.org/) -->
<svg
   xmlns:svg="http://www.w3.org/2000/svg"
   xmlns="http://www.w3.org/2000/svg"
   version="1.0"
   width="390"
   height="260"
   viewBox="0 0 1 1"
   id="svg2">
  <defs
     id="defs113" />
  <title
     id="title4">SVG drawing</title>
  <desc
     id="desc6">This was produced by version 4.1 of GNU libplot, a free library for exporting 2-D vector graphics.</desc>
  <rect
     width="1.5384616"
     height="1"
     x="-0.25"
     y="0"
     style="fill:#ffffff;stroke:none"
     id="rect8" />
  <g
     transform="matrix(0,4.6525289e-3,4.6755819e-3,0,-0.2539624,-1.0794966e-2)"
     style="font-style:normal;font-variant:normal;font-weight:normal;font-stretch:normal;letter-spacing:normal;word-spacing:normal;text-anchor:start;fill:none;fill-opacity:1;stroke:#000000;stroke-linecap:butt;stroke-linejoin:miter;stroke-miterlimit:10.43299961;stroke-dasharray:none;stroke-dashoffset:0;stroke-opacity:1"
     id="g10"
     xml:space="preserve">
<path
   d="M 77.223,94.918 L 76.945,94.911 L 76.671,94.89 L 76.401,94.856 L 76.135,94.808 L 75.874,94.748 L 75.617,94.675 L 75.366,94.59 L 75.121,94.494 L 74.882,94.385 L 74.649,94.266 L 74.423,94.136 L 74.204,93.996 L 73.992,93.845 L 73.788,93.685 L 73.592,93.515 L 73.404,93.336 L 73.225,93.149 L 73.055,92.953 L 72.894,92.749 L 72.744,92.537 L 72.603,92.318 L 72.473,92.092 L 72.354,91.86 L 72.245,91.62 L 72.148,91.375 L 72.063,91.124 L 71.991,90.868 L 71.93,90.607 L 71.883,90.341 L 71.848,90.071 L 71.827,89.797 L 71.82,89.52 C 71.82,86.539 74.242,84.117 77.223,84.117 C 80.203,84.117 82.621,86.539 82.621,89.52 C 82.621,92.5 80.203,94.918 77.223,94.918 z "
   style="fill:#b3dae6;fill-rule:nonzero;stroke:#b3dae6;stroke-width:0;stroke-linecap:round;stroke-linejoin:round"
   id="path12" />
<path
   d="M 77.223,94.918 L 76.945,94.911 L 76.671,94.89 L 76.401,94.856 L 76.135,94.808 L 75.874,94.748 L 75.617,94.675 L 75.366,94.59 L 75.121,94.494 L 74.882,94.385 L 74.649,94.266 L 74.423,94.136 L 74.204,93.996 L 73.992,93.845 L 73.788,93.685 L 73.592,93.515 L 73.404,93.336 L 73.225,93.149 L 73.055,92.953 L 72.894,92.749 L 72.744,92.537 L 72.603,92.318 L 72.473,92.092 L 72.354,91.86 L 72.245,91.62 L 72.148,91.375 L 72.063,91.124 L 71.991,90.868 L 71.93,90.607 L 71.883,90.341 L 71.848,90.071 L 71.827,89.797 L 71.82,89.52 C 71.82,86.539 74.242,84.117 77.223,84.117 C 80.203,84.117 82.621,86.539 82.621,89.52 C 82.621,92.5 80.203,94.918 77.223,94.918 z "
   style="stroke:#0000ff;stroke-width:0.75;stroke-linecap:round;stroke-linejoin:round"
   id="path14" />
<path
   d="M 64.441,113.02 L 64.164,113.01 L 63.89,112.99 L 63.619,112.96 L 63.354,112.91 L 63.093,112.85 L 62.836,112.78 L 62.586,112.69 L 62.341,112.59 L 62.101,112.49 L 61.869,112.37 L 61.643,112.24 L 61.424,112.1 L 61.212,111.95 L 61.008,111.79 L 60.812,111.62 L 60.625,111.44 L 60.446,111.25 L 60.276,111.05 L 60.116,110.85 L 59.965,110.64 L 59.825,110.42 L 59.695,110.19 L 59.576,109.96 L 59.467,109.72 L 59.371,109.47 L 59.286,109.22 L 59.213,108.97 L 59.153,108.71 L 59.105,108.44 L 59.071,108.17 L 59.05,107.89 L 59.043,107.62 C 59.043,104.64 61.461,102.22 64.441,102.22 C 67.422,102.22 69.844,104.64 69.844,107.62 C 69.844,110.6 67.422,113.02 64.441,113.02 z "
   style="fill:#b3dae6;fill-rule:nonzero;stroke:#b3dae6;stroke-width:0;stroke-linecap:round;stroke-linejoin:round"
   id="path16" />
<path
   d="M 64.441,113.02 L 64.164,113.01 L 63.89,112.99 L 63.619,112.96 L 63.354,112.91 L 63.093,112.85 L 62.836,112.78 L 62.586,112.69 L 62.341,112.59 L 62.101,112.49 L 61.869,112.37 L 61.643,112.24 L 61.424,112.1 L 61.212,111.95 L 61.008,111.79 L 60.812,111.62 L 60.625,111.44 L 60.446,111.25 L 60.276,111.05 L 60.116,110.85 L 59.965,110.64 L 59.825,110.42 L 59.695,110.19 L 59.576,109.96 L 59.467,109.72 L 59.371,109.47 L 59.286,109.22 L 59.213,108.97 L 59.153,108.71 L 59.105,108.44 L 59.071,108.17 L 59.05,107.89 L 59.043,107.62 C 59.043,104.64 61.461,102.22 64.441,102.22 C 67.422,102.22 69.844,104.64 69.844,107.62 C 69.844,110.6 67.422,113.02 64.441,113.02 z "
   style="stroke:#0000ff;stroke-width:0.75;stroke-linecap:round;stroke-linejoin:round"
   id="path18" />
<path
   d="M 51.672,131.11 L 51.394,131.1 L 51.12,131.08 L 50.85,131.05 L 50.584,131 L 50.323,130.94 L 50.067,130.87 L 49.816,130.78 L 49.571,130.68 L 49.332,130.58 L 49.099,130.46 L 48.873,130.33 L 48.654,130.19 L 48.442,130.04 L 48.238,129.87 L 48.042,129.7 L 47.855,129.53 L 47.676,129.34 L 47.506,129.14 L 47.346,128.94 L 47.196,128.73 L 47.055,128.51 L 46.925,128.28 L 46.806,128.05 L 46.698,127.81 L 46.601,127.56 L 46.516,127.31 L 46.443,127.06 L 46.383,126.79 L 46.336,126.53 L 46.301,126.26 L 46.28,125.98 L 46.273,125.71 C 46.273,122.73 48.691,120.31 51.672,120.31 C 54.652,120.31 57.07,122.73 57.07,125.71 C 57.07,128.69 54.652,131.11 51.672,131.11 z "
   style="fill:#b3dae6;fill-rule:nonzero;stroke:#b3dae6;stroke-width:0;stroke-linecap:round;stroke-linejoin:round"
   id="path20" />
<path
   d="M 51.672,131.11 L 51.394,131.1 L 51.12,131.08 L 50.85,131.05 L 50.584,131 L 50.323,130.94 L 50.067,130.87 L 49.816,130.78 L 49.571,130.68 L 49.332,130.58 L 49.099,130.46 L 48.873,130.33 L 48.654,130.19 L 48.442,130.04 L 48.238,129.87 L 48.042,129.7 L 47.855,129.53 L 47.676,129.34 L 47.506,129.14 L 47.346,128.94 L 47.196,128.73 L 47.055,128.51 L 46.925,128.28 L 46.806,128.05 L 46.698,127.81 L 46.601,127.56 L 46.516,127.31 L 46.443,127.06 L 46.383,126.79 L 46.336,126.53 L 46.301,126.26 L 46.28,125.98 L 46.273,125.71 C 46.273,122.73 48.691,120.31 51.672,120.31 C 54.652,120.31 57.07,122.73 57.07,125.71 C 57.07,128.69 54.652,131.11 51.672,131.11 z "
   style="stroke:#0000ff;stroke-width:0.75;stroke-linecap:round;stroke-linejoin:round"
   id="path22" />
<path
   d="M 38.891,149.21 L 38.613,149.2 L 38.339,149.18 L 38.069,149.14 L 37.803,149.1 L 37.542,149.04 L 37.286,148.96 L 37.035,148.88 L 36.79,148.78 L 36.551,148.67 L 36.318,148.56 L 36.092,148.43 L 35.873,148.28 L 35.661,148.13 L 35.457,147.97 L 35.261,147.8 L 35.074,147.63 L 34.895,147.44 L 34.725,147.24 L 34.565,147.04 L 34.414,146.83 L 34.274,146.61 L 34.144,146.38 L 34.025,146.15 L 33.917,145.91 L 33.82,145.66 L 33.735,145.41 L 33.662,145.16 L 33.602,144.9 L 33.554,144.63 L 33.52,144.36 L 33.499,144.09 L 33.492,143.81 C 33.492,140.83 35.91,138.41 38.891,138.41 C 41.871,138.41 44.293,140.83 44.293,143.81 C 44.293,146.79 41.871,149.21 38.891,149.21 z "
   style="fill:#b3dae6;fill-rule:nonzero;stroke:#b3dae6;stroke-width:0;stroke-linecap:round;stroke-linejoin:round"
   id="path24" />
<path
   d="M 38.891,149.21 L 38.613,149.2 L 38.339,149.18 L 38.069,149.14 L 37.803,149.1 L 37.542,149.04 L 37.286,148.96 L 37.035,148.88 L 36.79,148.78 L 36.551,148.67 L 36.318,148.56 L 36.092,148.43 L 35.873,148.28 L 35.661,148.13 L 35.457,147.97 L 35.261,147.8 L 35.074,147.63 L 34.895,147.44 L 34.725,147.24 L 34.565,147.04 L 34.414,146.83 L 34.274,146.61 L 34.144,146.38 L 34.025,146.15 L 33.917,145.91 L 33.82,145.66 L 33.735,145.41 L 33.662,145.16 L 33.602,144.9 L 33.554,144.63 L 33.52,144.36 L 33.499,144.09 L 33.492,143.81 C 33.492,140.83 35.91,138.41 38.891,138.41 C 41.871,138.41 44.293,140.83 44.293,143.81 C 44.293,146.79 41.871,149.21 38.891,149.21 z "
   style="stroke:#0000ff;stroke-width:0.75;stroke-linecap:round;stroke-linejoin:round"
   id="path26" />
<path
   d="M 141.11,221.59 L 140.84,221.58 L 140.56,221.56 L 140.29,221.53 L 140.03,221.48 L 139.76,221.42 L 139.51,221.35 L 139.26,221.26 L 139.01,221.16 L 138.77,221.06 L 138.54,220.94 L 138.31,220.81 L 138.09,220.67 L 137.88,220.52 L 137.68,220.36 L 137.48,220.19 L 137.29,220.01 L 137.12,219.82 L 136.95,219.62 L 136.79,219.42 L 136.63,219.21 L 136.49,218.99 L 136.36,218.76 L 136.24,218.53 L 136.14,218.29 L 136.04,218.04 L 135.95,217.79 L 135.88,217.54 L 135.82,217.28 L 135.77,217.01 L 135.74,216.74 L 135.72,216.47 L 135.71,216.19 C 135.71,213.21 138.13,210.79 141.11,210.79 C 144.09,210.79 146.51,213.21 146.51,216.19 C 146.51,219.17 144.09,221.59 141.11,221.59 z "
   style="fill:#ffc0cb;fill-rule:nonzero;stroke:#ffc0cb;stroke-width:0;stroke-linecap:round;stroke-linejoin:round"
   id="path28" />
<path
   d="M 141.11,221.59 L 140.84,221.58 L 140.56,221.56 L 140.29,221.53 L 140.03,221.48 L 139.76,221.42 L 139.51,221.35 L 139.26,221.26 L 139.01,221.16 L 138.77,221.06 L 138.54,220.94 L 138.31,220.81 L 138.09,220.67 L 137.88,220.52 L 137.68,220.36 L 137.48,220.19 L 137.29,220.01 L 137.12,219.82 L 136.95,219.62 L 136.79,219.42 L 136.63,219.21 L 136.49,218.99 L 136.36,218.76 L 136.24,218.53 L 136.14,218.29 L 136.04,218.04 L 135.95,217.79 L 135.88,217.54 L 135.82,217.28 L 135.77,217.01 L 135.74,216.74 L 135.72,216.47 L 135.71,216.19 C 135.71,213.21 138.13,210.79 141.11,210.79 C 144.09,210.79 146.51,213.21 146.51,216.19 C 146.51,219.17 144.09,221.59 141.11,221.59 z "
   style="stroke:#ff0000;stroke-width:0.75;stroke-linecap:round;stroke-linejoin:round"
   id="path30" />
<path
   d="M 128.33,239.69 L 128.05,239.68 L 127.78,239.66 L 127.51,239.63 L 127.24,239.58 L 126.98,239.52 L 126.73,239.45 L 126.48,239.36 L 126.23,239.26 L 125.99,239.16 L 125.76,239.04 L 125.53,238.91 L 125.31,238.77 L 125.1,238.62 L 124.9,238.45 L 124.7,238.29 L 124.52,238.11 L 124.34,237.92 L 124.17,237.72 L 124.01,237.52 L 123.86,237.31 L 123.72,237.09 L 123.59,236.86 L 123.47,236.63 L 123.36,236.39 L 123.26,236.15 L 123.18,235.89 L 123.1,235.64 L 123.04,235.38 L 123,235.11 L 122.96,234.84 L 122.94,234.57 L 122.93,234.29 C 122.93,231.31 125.35,228.89 128.33,228.89 C 131.31,228.89 133.73,231.31 133.73,234.29 C 133.73,237.27 131.31,239.69 128.33,239.69 z "
   style="fill:#ffc0cb;fill-rule:nonzero;stroke:#ffc0cb;stroke-width:0;stroke-linecap:round;stroke-linejoin:round"
   id="path32" />
<path
   d="M 128.33,239.69 L 128.05,239.68 L 127.78,239.66 L 127.51,239.63 L 127.24,239.58 L 126.98,239.52 L 126.73,239.45 L 126.48,239.36 L 126.23,239.26 L 125.99,239.16 L 125.76,239.04 L 125.53,238.91 L 125.31,238.77 L 125.1,238.62 L 124.9,238.45 L 124.7,238.29 L 124.52,238.11 L 124.34,237.92 L 124.17,237.72 L 124.01,237.52 L 123.86,237.31 L 123.72,237.09 L 123.59,236.86 L 123.47,236.63 L 123.36,236.39 L 123.26,236.15 L 123.18,235.89 L 123.1,235.64 L 123.04,235.38 L 123,235.11 L 122.96,234.84 L 122.94,234.57 L 122.93,234.29 C 122.93,231.31 125.35,228.89 128.33,228.89 C 131.31,228.89 133.73,231.31 133.73,234.29 C 133.73,237.27 131.31,239.69 128.33,239.69 z "
   style="stroke:#ff0000;stroke-width:0.75;stroke-linecap:round;stroke-linejoin:round"
   id="path34" />
<path
   d="M 115.56,257.78 L 115.28,257.77 L 115.01,257.75 L 114.74,257.71 L 114.47,257.67 L 114.21,257.61 L 113.96,257.53 L 113.71,257.45 L 113.46,257.35 L 113.22,257.24 L 112.99,257.13 L 112.76,257 L 112.54,256.85 L 112.33,256.7 L 112.13,256.54 L 111.93,256.37 L 111.74,256.2 L 111.56,256.01 L 111.39,255.81 L 111.23,255.61 L 111.08,255.4 L 110.94,255.18 L 110.81,254.95 L 110.69,254.72 L 110.59,254.48 L 110.49,254.23 L 110.4,253.98 L 110.33,253.73 L 110.27,253.47 L 110.22,253.2 L 110.19,252.93 L 110.17,252.66 L 110.16,252.38 C 110.16,249.4 112.58,246.98 115.56,246.98 C 118.54,246.98 120.96,249.4 120.96,252.38 C 120.96,255.36 118.54,257.78 115.56,257.78 z "
   style="fill:#ffc0cb;fill-rule:nonzero;stroke:#ffc0cb;stroke-width:0;stroke-linecap:round;stroke-linejoin:round"
   id="path36" />
<path
   d="M 115.56,257.78 L 115.28,257.77 L 115.01,257.75 L 114.74,257.71 L 114.47,257.67 L 114.21,257.61 L 113.96,257.53 L 113.71,257.45 L 113.46,257.35 L 113.22,257.24 L 112.99,257.13 L 112.76,257 L 112.54,256.85 L 112.33,256.7 L 112.13,256.54 L 111.93,256.37 L 111.74,256.2 L 111.56,256.01 L 111.39,255.81 L 111.23,255.61 L 111.08,255.4 L 110.94,255.18 L 110.81,254.95 L 110.69,254.72 L 110.59,254.48 L 110.49,254.23 L 110.4,253.98 L 110.33,253.73 L 110.27,253.47 L 110.22,253.2 L 110.19,252.93 L 110.17,252.66 L 110.16,252.38 C 110.16,249.4 112.58,246.98 115.56,246.98 C 118.54,246.98 120.96,249.4 120.96,252.38 C 120.96,255.36 118.54,257.78 115.56,257.78 z "
   style="stroke:#ff0000;stroke-width:0.75;stroke-linecap:round;stroke-linejoin:round"
   id="path38" />
<path
   d="M 102.78,275.88 L 102.5,275.87 L 102.23,275.85 L 101.96,275.82 L 101.69,275.77 L 101.43,275.71 L 101.18,275.64 L 100.93,275.55 L 100.68,275.45 L 100.44,275.35 L 100.21,275.23 L 99.982,275.1 L 99.763,274.96 L 99.552,274.8 L 99.348,274.64 L 99.152,274.47 L 98.964,274.3 L 98.786,274.11 L 98.616,273.91 L 98.456,273.71 L 98.305,273.5 L 98.165,273.28 L 98.035,273.05 L 97.915,272.82 L 97.807,272.58 L 97.71,272.33 L 97.626,272.08 L 97.553,271.83 L 97.493,271.56 L 97.445,271.3 L 97.411,271.03 L 97.39,270.75 L 97.383,270.48 C 97.383,267.5 99.801,265.08 102.78,265.08 C 105.76,265.08 108.18,267.5 108.18,270.48 C 108.18,273.46 105.76,275.88 102.78,275.88 z "
   style="fill:#ffc0cb;fill-rule:nonzero;stroke:#ffc0cb;stroke-width:0;stroke-linecap:round;stroke-linejoin:round"
   id="path40" />
<path
   d="M 102.78,275.88 L 102.5,275.87 L 102.23,275.85 L 101.96,275.82 L 101.69,275.77 L 101.43,275.71 L 101.18,275.64 L 100.93,275.55 L 100.68,275.45 L 100.44,275.35 L 100.21,275.23 L 99.982,275.1 L 99.763,274.96 L 99.552,274.8 L 99.348,274.64 L 99.152,274.47 L 98.964,274.3 L 98.786,274.11 L 98.616,273.91 L 98.456,273.71 L 98.305,273.5 L 98.165,273.28 L 98.035,273.05 L 97.915,272.82 L 97.807,272.58 L 97.71,272.33 L 97.626,272.08 L 97.553,271.83 L 97.493,271.56 L 97.445,271.3 L 97.411,271.03 L 97.39,270.75 L 97.383,270.48 C 97.383,267.5 99.801,265.08 102.78,265.08 C 105.76,265.08 108.18,267.5 108.18,270.48 C 108.18,273.46 105.76,275.88 102.78,275.88 z "
   style="stroke:#ff0000;stroke-width:0.75;stroke-linecap:round;stroke-linejoin:round"
   id="path42" />
<line
   x1="172.8"
   y1="71.43"
   x2="172.8"
   y2="288.57001"
   style="stroke-width:0.75;stroke-linecap:round"
   id="line44" />
<line
   x1="172.8"
   y1="71.43"
   x2="180"
   y2="71.43"
   style="stroke-width:0.75;stroke-linecap:round"
   id="line46" />
<line
   x1="172.8"
   y1="107.62"
   x2="180"
   y2="107.62"
   style="stroke-width:0.75;stroke-linecap:round"
   id="line48" />
<line
   x1="172.8"
   y1="143.81"
   x2="180"
   y2="143.81"
   style="stroke-width:0.75;stroke-linecap:round"
   id="line50" />
<line
   x1="172.8"
   y1="180"
   x2="180"
   y2="180"
   style="stroke-width:0.75;stroke-linecap:round"
   id="line52" />
<line
   x1="172.8"
   y1="216.19"
   x2="180"
   y2="216.19"
   style="stroke-width:0.75;stroke-linecap:round"
   id="line54" />
<line
   x1="172.8"
   y1="252.38"
   x2="180"
   y2="252.38"
   style="stroke-width:0.75;stroke-linecap:round"
   id="line56" />
<line
   x1="172.8"
   y1="288.57001"
   x2="180"
   y2="288.57001"
   style="stroke-width:0.75;stroke-linecap:round"
   id="line58" />
<text
   transform="matrix(0,1,1,0,198.72,68.094)"
   style="font-size:12px;fill:#000000;stroke:none;font-family:&quot;Helvetica&quot;, sans-serif"
   id="text60">0</text>

<text
   transform="matrix(0,1,1,0,198.72,104.28)"
   style="font-size:12px;fill:#000000;stroke:none;font-family:&quot;Helvetica&quot;, sans-serif"
   id="text62">2</text>

<text
   transform="matrix(0,1,1,0,198.72,140.47)"
   style="font-size:12px;fill:#000000;stroke:none;font-family:&quot;Helvetica&quot;, sans-serif"
   id="text64">4</text>

<text
   transform="matrix(0,1,1,0,198.72,176.66)"
   style="font-size:12px;fill:#000000;stroke:none;font-family:&quot;Helvetica&quot;, sans-serif"
   id="text66">6</text>

<text
   transform="matrix(0,1,1,0,198.72,212.85)"
   style="font-size:12px;fill:#000000;stroke:none;font-family:&quot;Helvetica&quot;, sans-serif"
   id="text68">8</text>

<text
   transform="matrix(0,1,1,0,198.72,245.71)"
   style="font-size:12px;fill:#000000;stroke:none;font-family:&quot;Helvetica&quot;, sans-serif"
   id="text70">10</text>

<text
   transform="matrix(0,1,1,0,198.72,281.89)"
   style="font-size:12px;fill:#000000;stroke:none;font-family:&quot;Helvetica&quot;, sans-serif"
   id="text72">12</text>

<line
   x1="153.89"
   y1="43.199001"
   x2="26.113001"
   y2="43.199001"
   style="stroke-width:0.75;stroke-linecap:round"
   id="line74" />
<line
   x1="153.89"
   y1="43.199001"
   x2="153.89"
   y2="36"
   style="stroke-width:0.75;stroke-linecap:round"
   id="line76" />
<line
   x1="128.33"
   y1="43.199001"
   x2="128.33"
   y2="36"
   style="stroke-width:0.75;stroke-linecap:round"
   id="line78" />
<line
   x1="102.78"
   y1="43.199001"
   x2="102.78"
   y2="36"
   style="stroke-width:0.75;stroke-linecap:round"
   id="line80" />
<line
   x1="77.223"
   y1="43.199001"
   x2="77.223"
   y2="36"
   style="stroke-width:0.75;stroke-linecap:round"
   id="line82" />
<line
   x1="51.672001"
   y1="43.199001"
   x2="51.672001"
   y2="36"
   style="stroke-width:0.75;stroke-linecap:round"
   id="line84" />
<line
   x1="26.113001"
   y1="43.199001"
   x2="26.113001"
   y2="36"
   style="stroke-width:0.75;stroke-linecap:round"
   id="line86" />
<text
   transform="matrix(0,1,1,0,158.2,22.125)"
   style="font-size:12px;fill:#000000;stroke:none;font-family:&quot;Helvetica&quot;, sans-serif"
   id="text88">0</text>

<text
   transform="matrix(0,1,1,0,132.64,22.125)"
   style="font-size:12px;fill:#000000;stroke:none;font-family:&quot;Helvetica&quot;, sans-serif"
   id="text90">2</text>

<text
   transform="matrix(0,1,1,0,107.09,22.125)"
   style="font-size:12px;fill:#000000;stroke:none;font-family:&quot;Helvetica&quot;, sans-serif"
   id="text92">4</text>

<text
   transform="matrix(0,1,1,0,81.531,22.125)"
   style="font-size:12px;fill:#000000;stroke:none;font-family:&quot;Helvetica&quot;, sans-serif"
   id="text94">6</text>

<text
   transform="matrix(0,1,1,0,55.973,22.125)"
   style="font-size:12px;fill:#000000;stroke:none;font-family:&quot;Helvetica&quot;, sans-serif"
   id="text96">8</text>

<text
   transform="matrix(0,1,1,0,30.422,15.453)"
   style="font-size:12px;fill:#000000;stroke:none;font-family:&quot;Helvetica&quot;, sans-serif"
   id="text98">10</text>

<polygon
   points="172.8,43.199 172.8,316.8 7.2031,316.8 7.2031,43.199 172.8,43.199 "
   style="stroke-width:0.75;stroke-linejoin:round"
   id="polygon100" />
<text
   transform="matrix(0,1,1,0,213.12,177)"
   style="font-size:12px;fill:#000000;stroke:none;font-family:&quot;Helvetica&quot;, sans-serif"
   id="text102">x</text>

<text
   transform="matrix(-1,0,0,1,93,11.519)"
   style="font-size:12px;fill:#000000;stroke:none;font-family:&quot;Helvetica&quot;, sans-serif"
   id="text104">y</text>

<line
   x1="109.93"
   y1="43.199001"
   x2="7.2069998"
   y2="188.69"
   style="stroke:#0000ff;stroke-width:1.5;stroke-linecap:round"
   id="line106" />
<line
   x1="172.8"
   y1="171.31"
   x2="70.073997"
   y2="316.79999"
   style="stroke:#ff0000;stroke-width:1.5;stroke-linecap:round"
   id="line108" />
<line
   x1="36.332001"
   y1="43.199001"
   x2="143.67"
   y2="316.79999"
   style="stroke-width:1.5;stroke-linecap:round;stroke-dasharray:4.5, 7.5"
   id="line110" />
</g></svg>
